<svg width="56" height="57" viewBox="0 0 56 57" fill="none" xmlns="http://www.w3.org/2000/svg">
<g filter="url(#filter0_d_197_2647)">
<circle cx="28" cy="24.0137" r="24" fill="#023F3A"/>
<path d="M37 14.0137H19C18.7348 14.0137 18.4804 14.119 18.2929 14.3066C18.1054 14.4941 18 14.7485 18 15.0137V33.0137C18 33.2789 18.1054 33.5332 18.2929 33.7208C18.4804 33.9083 18.7348 34.0137 19 34.0137H37C37.2652 34.0137 37.5196 33.9083 37.7071 33.7208C37.8946 33.5332 38 33.2789 38 33.0137V15.0137C38 14.7485 37.8946 14.4941 37.7071 14.3066C37.5196 14.119 37.2652 14.0137 37 14.0137ZM24 32.0137H20V28.0137H24V32.0137ZM24 26.0137H20V22.0137H24V26.0137ZM24 20.0137H20V16.0137H24V20.0137ZM30 32.0137H26V28.0137H30V32.0137ZM30 26.0137H26V22.0137H30V26.0137ZM30 20.0137H26V16.0137H30V20.0137ZM36 32.0137H32V28.0137H36V32.0137ZM36 26.0137H32V22.0137H36V26.0137ZM36 20.0137H32V16.0137H36V20.0137Z" fill="#F0FDF4"/>
</g>
<defs>
<filter id="filter0_d_197_2647" x="0" y="0.0136719" width="56" height="56" filterUnits="userSpaceOnUse" color-interpolation-filters="sRGB">
<feFlood flood-opacity="0" result="BackgroundImageFix"/>
<feColorMatrix in="SourceAlpha" type="matrix" values="0 0 0 0 0 0 0 0 0 0 0 0 0 0 0 0 0 0 127 0" result="hardAlpha"/>
<feOffset dy="4"/>
<feGaussianBlur stdDeviation="2"/>
<feComposite in2="hardAlpha" operator="out"/>
<feColorMatrix type="matrix" values="0 0 0 0 0 0 0 0 0 0 0 0 0 0 0 0 0 0 0.25 0"/>
<feBlend mode="normal" in2="BackgroundImageFix" result="effect1_dropShadow_197_2647"/>
<feBlend mode="normal" in="SourceGraphic" in2="effect1_dropShadow_197_2647" result="shape"/>
</filter>
</defs>
</svg>
