<svg width="24" height="25" viewBox="0 0 24 25" fill="none" xmlns="http://www.w3.org/2000/svg">
    <path fill-rule="evenodd" clip-rule="evenodd" d="M7.6 2.195h8.8a5.425 5.425 0 0 1 5.418 5.42v8.798a5.425 5.425 0 0 1-5.419 5.419H7.601a5.425 5.425 0 0 1-5.42-5.42V7.615a5.425 5.425 0 0 1 5.42-5.419zm8.8 17.895a3.68 3.68 0 0 0 3.676-3.677V7.614a3.681 3.681 0 0 0-3.677-3.676H7.601a3.68 3.68 0 0 0-3.677 3.676v8.799a3.68 3.68 0 0 0 3.677 3.677h8.798zm-9.543-8.076A5.149 5.149 0 0 1 12 6.87a5.149 5.149 0 0 1 5.143 5.143A5.149 5.149 0 0 1 12 17.157a5.149 5.149 0 0 1-5.143-5.143zm1.771 0A3.376 3.376 0 0 0 12 15.386a3.376 3.376 0 0 0 3.372-3.372A3.376 3.376 0 0 0 12 8.642a3.376 3.376 0 0 0-3.372 3.372z" fill="#023F3A"/>
    <mask id="jhk0kb6c3a" style="mask-type:alpha" maskUnits="userSpaceOnUse" x="2" y="2" width="20" height="20">
        <path fill-rule="evenodd" clip-rule="evenodd" d="M7.6 2.195h8.8a5.425 5.425 0 0 1 5.418 5.42v8.798a5.425 5.425 0 0 1-5.419 5.419H7.601a5.425 5.425 0 0 1-5.42-5.42V7.615a5.425 5.425 0 0 1 5.42-5.419zm8.8 17.895a3.68 3.68 0 0 0 3.676-3.677V7.614a3.681 3.681 0 0 0-3.677-3.676H7.601a3.68 3.68 0 0 0-3.677 3.676v8.799a3.68 3.68 0 0 0 3.677 3.677h8.798zm-9.543-8.076A5.149 5.149 0 0 1 12 6.87a5.149 5.149 0 0 1 5.143 5.143A5.149 5.149 0 0 1 12 17.157a5.149 5.149 0 0 1-5.143-5.143zm1.771 0A3.376 3.376 0 0 0 12 15.386a3.376 3.376 0 0 0 3.372-3.372A3.376 3.376 0 0 0 12 8.642a3.376 3.376 0 0 0-3.372 3.372z" fill="#fff"/>
    </mask>
</svg>
