<svg width="24" height="25" viewBox="0 0 24 25" fill="none" xmlns="http://www.w3.org/2000/svg">
    <path fill-rule="evenodd" clip-rule="evenodd" d="M21.818 6.16a7.597 7.597 0 0 1-2.184.599 3.82 3.82 0 0 0 1.672-2.104 7.67 7.67 0 0 1-2.418.924 3.805 3.805 0 0 0-6.483 3.469 10.8 10.8 0 0 1-7.84-3.975 3.776 3.776 0 0 0-.515 1.912c0 1.32.672 2.484 1.692 3.166a3.804 3.804 0 0 1-1.723-.478v.048a3.808 3.808 0 0 0 3.051 3.73 3.856 3.856 0 0 1-1.002.134c-.246 0-.483-.025-.716-.071a3.806 3.806 0 0 0 3.553 2.642 7.633 7.633 0 0 1-4.725 1.626c-.307 0-.61-.018-.907-.052a10.754 10.754 0 0 0 5.831 1.712c6.999 0 10.824-5.797 10.824-10.824l-.013-.493a7.597 7.597 0 0 0 1.903-1.965z" fill="#023F3A"/>
    <mask id="n1xl3j3b9a" style="mask-type:alpha" maskUnits="userSpaceOnUse" x="3" y="4" width="19" height="16">
        <path fill-rule="evenodd" clip-rule="evenodd" d="M21.818 6.16a7.597 7.597 0 0 1-2.184.599 3.82 3.82 0 0 0 1.672-2.104 7.67 7.67 0 0 1-2.418.924 3.805 3.805 0 0 0-6.483 3.469 10.8 10.8 0 0 1-7.84-3.975 3.776 3.776 0 0 0-.515 1.912c0 1.32.672 2.484 1.692 3.166a3.804 3.804 0 0 1-1.723-.478v.048a3.808 3.808 0 0 0 3.051 3.73 3.856 3.856 0 0 1-1.002.134c-.246 0-.483-.025-.716-.071a3.806 3.806 0 0 0 3.553 2.642 7.633 7.633 0 0 1-4.725 1.626c-.307 0-.61-.018-.907-.052a10.754 10.754 0 0 0 5.831 1.712c6.999 0 10.824-5.797 10.824-10.824l-.013-.493a7.597 7.597 0 0 0 1.903-1.965z" fill="#fff"/>
    </mask>
</svg>
